<?xml version="1.0" encoding="UTF-8" standalone="no"?>
<!DOCTYPE svg PUBLIC "-//W3C//DTD SVG 1.1//EN"
 "http://www.w3.org/Graphics/SVG/1.1/DTD/svg11.dtd">
<!-- Generated by graphviz version 15.0.0 (20260523.1842)
 -->
<!-- Title: factorq Pages: 1 -->
<svg width="1988pt" height="1411pt"
 viewBox="0.00 0.00 1988.00 1411.00" xmlns="http://www.w3.org/2000/svg" xmlns:xlink="http://www.w3.org/1999/xlink">
<g id="graph0" class="graph" transform="scale(1 1) rotate(0) translate(36 1375.4)">
<title>factorq</title>
<polygon fill="white" stroke="none" points="-36,36 -36,-1375.4 1951.5,-1375.4 1951.5,36 -36,36"/>
<text xml:space="preserve" text-anchor="start" x="789.71" y="-1320.2" font-family="Helvetica,sans-Serif" font-weight="bold" font-size="18.00">factor&#45;q — architecture as implemented</text>
<text xml:space="preserve" text-anchor="start" x="532.21" y="-1307.6" font-family="Helvetica,sans-Serif" font-size="12.00">cleanroom read of source · 2026&#45;07&#45;16 · v1: a single `fq run` process hosts both control&#45;plane and worker roles (boundary enforced by the worker::Worker trait)</text>
<text xml:space="preserve" text-anchor="start" x="589.67" y="-1296.5" font-family="Helvetica,sans-Serif" font-size="11.00">solid = dataflow / requests  ·  dashed = control &amp; secondary paths  ·  ①–⑧ = invocation lifecycle  ·  grey dashed box = built but not yet wired in</text>
<g id="clust1" class="cluster">
<title>cluster_nats</title>
<path fill="#f0ecfa" stroke="#8a7bbf" d="M374.5,-1082.84C374.5,-1082.84 1201.5,-1082.84 1201.5,-1082.84 1207.5,-1082.84 1213.5,-1088.84 1213.5,-1094.84 1213.5,-1094.84 1213.5,-1165.72 1213.5,-1165.72 1213.5,-1171.72 1207.5,-1177.72 1201.5,-1177.72 1201.5,-1177.72 374.5,-1177.72 374.5,-1177.72 368.5,-1177.72 362.5,-1171.72 362.5,-1165.72 362.5,-1165.72 362.5,-1094.84 362.5,-1094.84 362.5,-1088.84 368.5,-1082.84 374.5,-1082.84"/>
<text xml:space="preserve" text-anchor="start" x="685.4" y="-1163.02" font-family="Helvetica,sans-Serif" font-weight="bold" font-size="13.00">NATS</text>
<text xml:space="preserve" text-anchor="start" x="720.79" y="-1163.02" font-family="Helvetica,sans-Serif" font-size="13.00">   ·   nats://localhost:4222</text>
</g>
<g id="clust2" class="cluster">
<title>cluster_daemon</title>
<path fill="#e9f2fb" stroke="#5b8ec9" d="M864.5,-275.44C864.5,-275.44 1468.5,-275.44 1468.5,-275.44 1474.5,-275.44 1480.5,-281.44 1480.5,-287.44 1480.5,-287.44 1480.5,-750.16 1480.5,-750.16 1480.5,-756.16 1474.5,-762.16 1468.5,-762.16 1468.5,-762.16 864.5,-762.16 864.5,-762.16 858.5,-762.16 852.5,-756.16 852.5,-750.16 852.5,-750.16 852.5,-287.44 852.5,-287.44 852.5,-281.44 858.5,-275.44 864.5,-275.44"/>
<text xml:space="preserve" text-anchor="start" x="953.38" y="-747.46" font-family="Helvetica,sans-Serif" font-weight="bold" font-size="13.00">fq run daemon</text>
<text xml:space="preserve" text-anchor="start" x="1043.66" y="-747.46" font-family="Helvetica,sans-Serif" font-size="13.00">   ·   fq&#45;cli + fq&#45;runtime, single process, ~12 tokio tasks</text>
</g>
<g id="clust3" class="cluster">
<title>cluster_cp</title>
<path fill="#d7e7f8" stroke="#5b8ec9" d="M872.5,-552.4C872.5,-552.4 1460.5,-552.4 1460.5,-552.4 1466.5,-552.4 1472.5,-558.4 1472.5,-564.4 1472.5,-564.4 1472.5,-623.88 1472.5,-623.88 1472.5,-629.88 1466.5,-635.88 1460.5,-635.88 1460.5,-635.88 872.5,-635.88 872.5,-635.88 866.5,-635.88 860.5,-629.88 860.5,-623.88 860.5,-623.88 860.5,-564.4 860.5,-564.4 860.5,-558.4 866.5,-552.4 872.5,-552.4"/>
<text xml:space="preserve" text-anchor="start" x="1131.06" y="-622.98" font-family="Helvetica,sans-Serif" font-weight="bold" font-size="11.00">Control plane</text>
</g>
<g id="clust4" class="cluster">
<title>cluster_worker</title>
<path fill="#d7e7f8" stroke="#5b8ec9" d="M872.5,-283.44C872.5,-283.44 1256.5,-283.44 1256.5,-283.44 1262.5,-283.44 1268.5,-289.44 1268.5,-295.44 1268.5,-295.44 1268.5,-488.6 1268.5,-488.6 1268.5,-494.6 1262.5,-500.6 1256.5,-500.6 1256.5,-500.6 872.5,-500.6 872.5,-500.6 866.5,-500.6 860.5,-494.6 860.5,-488.6 860.5,-488.6 860.5,-295.44 860.5,-295.44 860.5,-289.44 866.5,-283.44 872.5,-283.44"/>
<text xml:space="preserve" text-anchor="start" x="996.66" y="-487.7" font-family="Helvetica,sans-Serif" font-weight="bold" font-size="11.00">Worker — ReducerRunner</text>
</g>
<g id="clust5" class="cluster">
<title>cluster_db</title>
<path fill="#fdf6e3" stroke="#c9a95b" d="M1247.5,-136.76C1247.5,-136.76 1837.5,-136.76 1837.5,-136.76 1843.5,-136.76 1849.5,-142.76 1849.5,-148.76 1849.5,-148.76 1849.5,-219.64 1849.5,-219.64 1849.5,-225.64 1843.5,-231.64 1837.5,-231.64 1837.5,-231.64 1247.5,-231.64 1247.5,-231.64 1241.5,-231.64 1235.5,-225.64 1235.5,-219.64 1235.5,-219.64 1235.5,-148.76 1235.5,-148.76 1235.5,-142.76 1241.5,-136.76 1247.5,-136.76"/>
<text xml:space="preserve" text-anchor="start" x="1336.95" y="-216.94" font-family="Helvetica,sans-Serif" font-weight="bold" font-size="13.00">events.db</text>
<text xml:space="preserve" text-anchor="start" x="1397.64" y="-216.94" font-family="Helvetica,sans-Serif" font-size="13.00">   ·   single SQLite file (WAL), three schema&#45;gated stores</text>
</g>
<g id="clust6" class="cluster">
<title>cluster_cas</title>
<path fill="none" stroke="#999999" stroke-dasharray="5,2" d="M1643.5,-8C1643.5,-8 1895.5,-8 1895.5,-8 1901.5,-8 1907.5,-14 1907.5,-20 1907.5,-20 1907.5,-89.68 1907.5,-89.68 1907.5,-95.68 1901.5,-101.68 1895.5,-101.68 1895.5,-101.68 1643.5,-101.68 1643.5,-101.68 1637.5,-101.68 1631.5,-95.68 1631.5,-89.68 1631.5,-89.68 1631.5,-20 1631.5,-20 1631.5,-14 1637.5,-8 1643.5,-8"/>
<text xml:space="preserve" text-anchor="start" x="1644.12" y="-87.88" font-family="Helvetica,sans-Serif" font-weight="bold" font-size="12.00" fill="#777777">fq&#45;cas</text>
<text xml:space="preserve" text-anchor="start" x="1679.46" y="-87.88" font-family="Helvetica,sans-Serif" font-size="12.00" fill="#777777">  — standalone CAS, unwired        </text>
</g>
<!-- github -->
<g id="node1" class="node">
<title>github</title>
<ellipse fill="#f2f2f2" stroke="#555555" cx="367.5" cy="-1258.26" rx="57.23" ry="21.55"/>
<text xml:space="preserve" text-anchor="middle" x="367.5" y="-1254.96" font-family="Helvetica,sans-Serif" font-size="11.00">GitHub API</text>
</g>
<!-- ghwatcher -->
<g id="node2" class="node">
<title>ghwatcher</title>
<path fill="#e8f4e8" stroke="#555555" d="M179.01,-1281.4C179.01,-1281.4 12,-1281.4 12,-1281.4 6,-1281.4 0,-1275.4 0,-1269.4 0,-1269.4 0,-1247.12 0,-1247.12 0,-1241.12 6,-1235.12 12,-1235.12 12,-1235.12 179.01,-1235.12 179.01,-1235.12 185.01,-1235.12 191.01,-1241.12 191.01,-1247.12 191.01,-1247.12 191.01,-1269.4 191.01,-1269.4 191.01,-1275.4 185.01,-1281.4 179.01,-1281.4"/>
<text xml:space="preserve" text-anchor="start" x="56.09" y="-1263.86" font-family="Helvetica,sans-Serif" font-weight="bold" font-size="11.00">github&#45;watcher</text>
<text xml:space="preserve" text-anchor="start" x="13.74" y="-1254.66" font-family="Helvetica,sans-Serif" font-size="9.00">Go adapter · polls issues labelled &#39;ready&#39;</text>
<text xml:space="preserve" text-anchor="start" x="12.96" y="-1245.66" font-family="Helvetica,sans-Serif" font-size="9.00">labels: ready → in&#45;progress → done/failed</text>
</g>
<!-- ghwatcher&#45;&gt;github -->
<g id="edge1" class="edge">
<title>ghwatcher&#45;&gt;github</title>
<path fill="none" stroke="#444444" stroke-dasharray="5,2" d="M200.77,-1258.26C234.44,-1258.26 270.76,-1258.26 300.88,-1258.26"/>
<polygon fill="#444444" stroke="#444444" points="200.92,-1255.46 192.92,-1258.26 200.92,-1261.06 200.92,-1255.46"/>
<polygon fill="#444444" stroke="#444444" points="300.51,-1261.07 308.51,-1258.26 300.51,-1255.47 300.51,-1261.07"/>
<text xml:space="preserve" text-anchor="middle" x="250.64" y="-1264.11" font-family="Helvetica,sans-Serif" font-size="9.50" fill="#333333">poll + relabel issues</text>
</g>
<!-- nats_triggers -->
<g id="node8" class="node">
<title>nats_triggers</title>
<path fill="#ffffff" stroke="#555555" d="M1005.51,-1146.12C1005.51,-1146.12 841.5,-1146.12 841.5,-1146.12 835.5,-1146.12 829.5,-1140.12 829.5,-1134.12 829.5,-1134.12 829.5,-1102.84 829.5,-1102.84 829.5,-1096.84 835.5,-1090.84 841.5,-1090.84 841.5,-1090.84 1005.51,-1090.84 1005.51,-1090.84 1011.51,-1090.84 1017.51,-1096.84 1017.51,-1102.84 1017.51,-1102.84 1017.51,-1134.12 1017.51,-1134.12 1017.51,-1140.12 1011.51,-1146.12 1005.51,-1146.12"/>
<text xml:space="preserve" text-anchor="start" x="896" y="-1128.58" font-family="Helvetica,sans-Serif" font-weight="bold" font-size="11.00">fq&#45;triggers</text>
<text xml:space="preserve" text-anchor="start" x="863.23" y="-1119.38" font-family="Helvetica,sans-Serif" font-size="9.00">JetStream work&#45;queue stream</text>
<text xml:space="preserve" text-anchor="start" x="842.46" y="-1110.38" font-family="Helvetica,sans-Serif" font-size="9.00">fq.trigger.&lt;agent&gt; · 24h · max_deliver 5</text>
<text xml:space="preserve" text-anchor="start" x="866.97" y="-1101.38" font-family="Helvetica,sans-Serif" font-size="9.00">NAK backoff 1s/5s/30s/120s</text>
</g>
<!-- ghwatcher&#45;&gt;nats_triggers -->
<g id="edge2" class="edge">
<title>ghwatcher&#45;&gt;nats_triggers</title>
<path fill="none" stroke="#444444" d="M191.02,-1240.91C223.2,-1235.74 259.35,-1230.29 292.5,-1226.12 522.37,-1197.27 589.26,-1243.14 811.5,-1177.72 832.57,-1171.53 854.29,-1161.26 872.94,-1151.06"/>
<polygon fill="#444444" stroke="#444444" points="874.07,-1153.64 879.69,-1147.29 871.34,-1148.75 874.07,-1153.64"/>
<text xml:space="preserve" text-anchor="start" x="773.11" y="-1187.62" font-family="Helvetica,sans-Serif" font-size="9.50" fill="#333333">① publish fq.trigger.&lt;agent&gt;</text>
</g>
<!-- nats_events -->
<g id="node9" class="node">
<title>nats_events</title>
<path fill="#ffffff" stroke="#555555" d="M536.13,-1141.62C536.13,-1141.62 382.88,-1141.62 382.88,-1141.62 376.88,-1141.62 370.88,-1135.62 370.88,-1129.62 370.88,-1129.62 370.88,-1107.34 370.88,-1107.34 370.88,-1101.34 376.88,-1095.34 382.88,-1095.34 382.88,-1095.34 536.13,-1095.34 536.13,-1095.34 542.13,-1095.34 548.13,-1101.34 548.13,-1107.34 548.13,-1107.34 548.13,-1129.62 548.13,-1129.62 548.13,-1135.62 542.13,-1141.62 536.13,-1141.62"/>
<text xml:space="preserve" text-anchor="start" x="435.06" y="-1124.08" font-family="Helvetica,sans-Serif" font-weight="bold" font-size="11.00">fq&#45;events</text>
<text xml:space="preserve" text-anchor="start" x="395.22" y="-1114.88" font-family="Helvetica,sans-Serif" font-size="9.00">JetStream stream, 30d retention</text>
<text xml:space="preserve" text-anchor="start" x="383.84" y="-1105.88" font-family="Helvetica,sans-Serif" font-size="9.00">fq.agent.&gt; · fq.system.&gt; · fq.worker.&gt;</text>
</g>
<!-- ghwatcher&#45;&gt;nats_events -->
<g id="edge3" class="edge">
<title>ghwatcher&#45;&gt;nats_events</title>
<path fill="none" stroke="#444444" stroke-dasharray="5,2" d="M32.78,-1230.06C12.5,-1217.51 -1.57,-1201.84 12.33,-1185.72 57.64,-1133.21 253.55,-1121.64 370.5,-1119.5"/>
<polygon fill="#444444" stroke="#444444" points="31.18,-1232.37 39.5,-1233.96 33.98,-1227.52 31.18,-1232.37"/>
<text xml:space="preserve" text-anchor="middle" x="70.42" y="-1188.57" font-family="Helvetica,sans-Serif" font-size="9.50" fill="#333333">observe .completed / .failed</text>
</g>
<!-- fqcli -->
<g id="node3" class="node">
<title>fqcli</title>
<path fill="#e8f4e8" stroke="#555555" d="M1032.26,-1290.4C1032.26,-1290.4 814.74,-1290.4 814.74,-1290.4 808.74,-1290.4 802.74,-1284.4 802.74,-1278.4 802.74,-1278.4 802.74,-1238.12 802.74,-1238.12 802.74,-1232.12 808.74,-1226.12 814.74,-1226.12 814.74,-1226.12 1032.26,-1226.12 1032.26,-1226.12 1038.26,-1226.12 1044.26,-1232.12 1044.26,-1238.12 1044.26,-1238.12 1044.26,-1278.4 1044.26,-1278.4 1044.26,-1284.4 1038.26,-1290.4 1032.26,-1290.4"/>
<text xml:space="preserve" text-anchor="start" x="907.93" y="-1272.86" font-family="Helvetica,sans-Serif" font-weight="bold" font-size="11.00">fq CLI</text>
<text xml:space="preserve" text-anchor="start" x="816.95" y="-1263.66" font-family="Helvetica,sans-Serif" font-size="9.00">operator surface: init · run · trigger · reload · drain ·</text>
<text xml:space="preserve" text-anchor="start" x="815.7" y="-1254.66" font-family="Helvetica,sans-Serif" font-size="9.00">down · status · costs · events · doctor · dead&#45;letters</text>
<text xml:space="preserve" text-anchor="start" x="848.96" y="-1245.66" font-family="Helvetica,sans-Serif" font-style="italic" font-size="9.00">default `fq trigger` runs the invocation</text>
<text xml:space="preserve" text-anchor="start" x="846.46" y="-1236.66" font-family="Helvetica,sans-Serif" font-style="italic" font-size="9.00">in&#45;process against the same events.db</text>
</g>
<!-- nats_control -->
<g id="node7" class="node">
<title>nats_control</title>
<path fill="#ffffff" stroke="#555555" d="M1193.5,-1141.62C1193.5,-1141.62 1065.51,-1141.62 1065.51,-1141.62 1059.51,-1141.62 1053.51,-1135.62 1053.51,-1129.62 1053.51,-1129.62 1053.51,-1107.34 1053.51,-1107.34 1053.51,-1101.34 1059.51,-1095.34 1065.51,-1095.34 1065.51,-1095.34 1193.5,-1095.34 1193.5,-1095.34 1199.5,-1095.34 1205.5,-1101.34 1205.5,-1107.34 1205.5,-1107.34 1205.5,-1129.62 1205.5,-1129.62 1205.5,-1135.62 1199.5,-1141.62 1193.5,-1141.62"/>
<text xml:space="preserve" text-anchor="start" x="1101.39" y="-1124.08" font-family="Helvetica,sans-Serif" font-weight="bold" font-size="11.00">core NATS</text>
<text xml:space="preserve" text-anchor="start" x="1074.48" y="-1114.88" font-family="Helvetica,sans-Serif" font-size="9.00">ephemeral control subjects:</text>
<text xml:space="preserve" text-anchor="start" x="1066.47" y="-1105.88" font-family="Helvetica,sans-Serif" font-size="9.00">fq.control.reload / .drain / .down</text>
</g>
<!-- fqcli&#45;&gt;nats_control -->
<g id="edge5" class="edge">
<title>fqcli&#45;&gt;nats_control</title>
<path fill="none" stroke="#444444" stroke-dasharray="5,2" d="M970.77,-1225.66C1006.18,-1201.97 1054.16,-1169.88 1088.08,-1147.19"/>
<polygon fill="#444444" stroke="#444444" points="1089.6,-1149.54 1094.69,-1142.77 1086.49,-1144.89 1089.6,-1149.54"/>
<text xml:space="preserve" text-anchor="middle" x="1074.83" y="-1188.57" font-family="Helvetica,sans-Serif" font-size="9.50" fill="#333333">fq reload / drain / down</text>
</g>
<!-- fqcli&#45;&gt;nats_triggers -->
<g id="edge4" class="edge">
<title>fqcli&#45;&gt;nats_triggers</title>
<path fill="none" stroke="#444444" d="M923.5,-1225.66C923.5,-1204.75 923.5,-1177.3 923.5,-1155.55"/>
<polygon fill="#444444" stroke="#444444" points="926.3,-1155.82 923.5,-1147.82 920.7,-1155.82 926.3,-1155.82"/>
<text xml:space="preserve" text-anchor="middle" x="963.36" y="-1188.57" font-family="Helvetica,sans-Serif" font-size="9.50" fill="#333333">fq trigger &#45;&#45;via&#45;nats</text>
</g>
<!-- projstore -->
<g id="node22" class="node">
<title>projstore</title>
<path fill="#ffffff" stroke="#555555" d="M1829.99,-195.54C1829.99,-195.54 1709.02,-195.54 1709.02,-195.54 1703.02,-195.54 1697.02,-189.54 1697.02,-183.54 1697.02,-183.54 1697.02,-161.26 1697.02,-161.26 1697.02,-155.26 1703.02,-149.26 1709.02,-149.26 1709.02,-149.26 1829.99,-149.26 1829.99,-149.26 1835.99,-149.26 1841.99,-155.26 1841.99,-161.26 1841.99,-161.26 1841.99,-183.54 1841.99,-183.54 1841.99,-189.54 1835.99,-195.54 1829.99,-195.54"/>
<text xml:space="preserve" text-anchor="start" x="1728.55" y="-178" font-family="Helvetica,sans-Serif" font-weight="bold" font-size="11.00">ProjectionStore</text>
<text xml:space="preserve" text-anchor="start" x="1715.24" y="-168.8" font-family="Helvetica,sans-Serif" font-weight="bold" font-size="9.00">rebuildable read model</text>
<text xml:space="preserve" text-anchor="start" x="1813.77" y="-168.8" font-family="Helvetica,sans-Serif" font-size="9.00"> —</text>
<text xml:space="preserve" text-anchor="start" x="1709.98" y="-159.8" font-family="Helvetica,sans-Serif" font-size="9.00">events · invocation_summary</text>
</g>
<!-- fqcli&#45;&gt;projstore -->
<g id="edge28" class="edge">
<title>fqcli&#45;&gt;projstore</title>
<path fill="none" stroke="#444444" stroke-dasharray="5,2" d="M802.47,-1252.03C657.74,-1243.8 425.94,-1223.71 353.5,-1177.72 327.41,-1161.16 315.5,-1150.39 315.5,-1119.48 315.5,-1119.48 315.5,-1119.48 315.5,-844.1 315.5,-811.07 294.48,-800.38 307.84,-770.16 439.94,-471.37 548.6,-397.82 851.5,-275.44 896.75,-257.17 1241.78,-265.1 1290.5,-262.44 1463.24,-253.04 1514.53,-286.76 1678.5,-231.64 1698.52,-224.92 1718.53,-212.84 1734.67,-201.43"/>
<polygon fill="#444444" stroke="#444444" points="1736.22,-203.76 1741.04,-196.79 1732.92,-199.23 1736.22,-203.76"/>
<text xml:space="preserve" text-anchor="middle" x="380.17" y="-784.41" font-family="Helvetica,sans-Serif" font-size="9.50" fill="#333333">direct read&#45;only SQLite:</text>
<text xml:space="preserve" text-anchor="middle" x="380.17" y="-773.01" font-family="Helvetica,sans-Serif" font-size="9.50" fill="#333333">status · costs · doctor · transcript</text>
</g>
<!-- config -->
<g id="node4" class="node">
<title>config</title>
<polygon fill="#fdf6e3" stroke="#555555" points="1010.61,-868.24 862.4,-868.24 862.4,-821.96 1016.61,-821.96 1016.61,-862.24 1010.61,-868.24"/>
<polyline fill="none" stroke="#555555" points="1010.61,-868.24 1010.61,-862.24"/>
<polyline fill="none" stroke="#555555" points="1016.61,-862.24 1010.61,-862.24"/>
<text xml:space="preserve" text-anchor="start" x="883.73" y="-850.7" font-family="Helvetica,sans-Serif" font-weight="bold" font-size="11.00">fq.toml + agents/*.md</text>
<text xml:space="preserve" text-anchor="start" x="889.72" y="-841.5" font-family="Helvetica,sans-Serif" font-size="9.00">config · agent definitions</text>
<text xml:space="preserve" text-anchor="start" x="875.36" y="-832.5" font-family="Helvetica,sans-Serif" font-size="9.00">(Markdown + YAML frontmatter)</text>
</g>
<!-- registry -->
<g id="node14" class="node">
<title>registry</title>
<path fill="#ffffff" stroke="#555555" d="M1020.24,-730.56C1020.24,-730.56 874.76,-730.56 874.76,-730.56 868.76,-730.56 862.76,-724.56 862.76,-718.56 862.76,-718.56 862.76,-696.28 862.76,-696.28 862.76,-690.28 868.76,-684.28 874.76,-684.28 874.76,-684.28 1020.24,-684.28 1020.24,-684.28 1026.24,-684.28 1032.24,-690.28 1032.24,-696.28 1032.24,-696.28 1032.24,-718.56 1032.24,-718.56 1032.24,-724.56 1026.24,-730.56 1020.24,-730.56"/>
<text xml:space="preserve" text-anchor="start" x="909.92" y="-713.02" font-family="Helvetica,sans-Serif" font-weight="bold" font-size="11.00">AgentRegistry</text>
<text xml:space="preserve" text-anchor="start" x="878.23" y="-703.82" font-family="Helvetica,sans-Serif" font-size="9.00">Arc&lt;RwLock&gt; · atomic hot swap ·</text>
<text xml:space="preserve" text-anchor="start" x="875.72" y="-694.82" font-family="Helvetica,sans-Serif" font-size="9.00">affects next trigger only (ADR&#45;0020)</text>
</g>
<!-- config&#45;&gt;registry -->
<g id="edge7" class="edge">
<title>config&#45;&gt;registry</title>
<path fill="none" stroke="#444444" d="M937.49,-821.47C936.79,-812.59 936.1,-802.31 935.75,-792.96 935.38,-782.84 934.8,-780.25 935.75,-770.16 936.68,-760.31 938.43,-749.68 940.3,-740.07"/>
<polygon fill="#444444" stroke="#444444" points="943.02,-740.74 941.88,-732.34 937.53,-739.62 943.02,-740.74"/>
<text xml:space="preserve" text-anchor="middle" x="989.63" y="-778.71" font-family="Helvetica,sans-Serif" font-size="9.50" fill="#333333">loaded at boot / on reload</text>
</g>
<!-- browser -->
<g id="node5" class="node">
<title>browser</title>
<ellipse fill="#f2f2f2" stroke="#555555" cx="1380.5" cy="-1258.26" rx="46.85" ry="21.55"/>
<text xml:space="preserve" text-anchor="middle" x="1380.5" y="-1254.96" font-family="Helvetica,sans-Serif" font-size="11.00">Browser</text>
</g>
<!-- dashboard -->
<g id="node6" class="node">
<title>dashboard</title>
<path fill="#e8f4e8" stroke="#555555" d="M1460.39,-1146.12C1460.39,-1146.12 1300.62,-1146.12 1300.62,-1146.12 1294.62,-1146.12 1288.62,-1140.12 1288.62,-1134.12 1288.62,-1134.12 1288.62,-1102.84 1288.62,-1102.84 1288.62,-1096.84 1294.62,-1090.84 1300.62,-1090.84 1300.62,-1090.84 1460.39,-1090.84 1460.39,-1090.84 1466.39,-1090.84 1472.39,-1096.84 1472.39,-1102.84 1472.39,-1102.84 1472.39,-1134.12 1472.39,-1134.12 1472.39,-1140.12 1466.39,-1146.12 1460.39,-1146.12"/>
<text xml:space="preserve" text-anchor="start" x="1345.37" y="-1128.58" font-family="Helvetica,sans-Serif" font-weight="bold" font-size="11.00">fq&#45;dashboard</text>
<text xml:space="preserve" text-anchor="start" x="1311.48" y="-1119.38" font-family="Helvetica,sans-Serif" font-size="9.00">axum BFF, separate crash domain</text>
<text xml:space="preserve" text-anchor="start" x="1301.58" y="-1110.38" font-family="Helvetica,sans-Serif" font-size="9.00">HTML + datastar SSE · 127.0.0.1:9472</text>
<text xml:space="preserve" text-anchor="start" x="1306.21" y="-1101.38" font-family="Helvetica,sans-Serif" font-size="9.00">read&#45;only: cannot touch runtime state</text>
</g>
<!-- browser&#45;&gt;dashboard -->
<g id="edge25" class="edge">
<title>browser&#45;&gt;dashboard</title>
<path fill="none" stroke="#444444" d="M1380.5,-1236.34C1380.5,-1214.98 1380.5,-1181.4 1380.5,-1155.71"/>
<polygon fill="#444444" stroke="#444444" points="1383.3,-1155.81 1380.5,-1147.81 1377.7,-1155.81 1383.3,-1155.81"/>
<text xml:space="preserve" text-anchor="middle" x="1421.03" y="-1188.57" font-family="Helvetica,sans-Serif" font-size="9.50" fill="#333333">HTTP + SSE :9472</text>
</g>
<!-- readsvc -->
<g id="node19" class="node">
<title>readsvc</title>
<path fill="#ffffff" stroke="#555555" d="M1460.02,-730.56C1460.02,-730.56 1294.99,-730.56 1294.99,-730.56 1288.99,-730.56 1282.99,-724.56 1282.99,-718.56 1282.99,-718.56 1282.99,-696.28 1282.99,-696.28 1282.99,-690.28 1288.99,-684.28 1294.99,-684.28 1294.99,-684.28 1460.02,-684.28 1460.02,-684.28 1466.02,-684.28 1472.02,-690.28 1472.02,-696.28 1472.02,-696.28 1472.02,-718.56 1472.02,-718.56 1472.02,-724.56 1466.02,-730.56 1460.02,-730.56"/>
<text xml:space="preserve" text-anchor="start" x="1343.26" y="-713.02" font-family="Helvetica,sans-Serif" font-weight="bold" font-size="11.00">Read&#45;service</text>
<text xml:space="preserve" text-anchor="start" x="1295.95" y="-703.82" font-family="Helvetica,sans-Serif" font-size="9.00">tarpc · 127.0.0.1:9471 · loopback&#45;only ·</text>
<text xml:space="preserve" text-anchor="start" x="1314.71" y="-694.82" font-family="Helvetica,sans-Serif" font-size="9.00">unauthenticated · off by default</text>
</g>
<!-- dashboard&#45;&gt;readsvc -->
<g id="edge26" class="edge">
<title>dashboard&#45;&gt;readsvc</title>
<path fill="none" stroke="#444444" d="M1380.5,-1090.49C1380.5,-1073.63 1380.5,-1051.47 1380.5,-1031.84 1380.5,-1031.84 1380.5,-1031.84 1380.5,-844.1 1380.5,-808.64 1379.47,-767.98 1378.61,-740.49"/>
<polygon fill="#444444" stroke="#444444" points="1381.41,-740.41 1378.36,-732.5 1375.81,-740.59 1381.41,-740.41"/>
<text xml:space="preserve" text-anchor="middle" x="1435.69" y="-957.59" font-family="Helvetica,sans-Serif" font-size="9.50" fill="#333333">tarpc / bincode TCP :9471</text>
</g>
<!-- nats_control&#45;&gt;registry -->
<g id="edge6" class="edge">
<title>nats_control&#45;&gt;registry</title>
<path fill="none" stroke="#444444" stroke-dasharray="5,2" d="M1167.13,-1095.01C1187.08,-1080 1207.5,-1058.19 1207.5,-1031.84 1207.5,-1031.84 1207.5,-1031.84 1207.5,-844.1 1207.5,-844.1 1074.53,-774.71 998.77,-735.18"/>
<polygon fill="#444444" stroke="#444444" points="1000.46,-732.9 992.07,-731.68 997.87,-737.87 1000.46,-732.9"/>
<text xml:space="preserve" text-anchor="middle" x="1258.2" y="-963.29" font-family="Helvetica,sans-Serif" font-size="9.50" fill="#333333">reload → re&#45;read agents</text>
<text xml:space="preserve" text-anchor="middle" x="1258.2" y="-951.89" font-family="Helvetica,sans-Serif" font-size="9.50" fill="#333333">dir, swap registry</text>
</g>
<!-- dispatcher -->
<g id="node11" class="node">
<title>dispatcher</title>
<path fill="#ffffff" stroke="#555555" d="M1452.47,-602.18C1452.47,-602.18 1320.54,-602.18 1320.54,-602.18 1314.54,-602.18 1308.54,-596.18 1308.54,-590.18 1308.54,-590.18 1308.54,-576.9 1308.54,-576.9 1308.54,-570.9 1314.54,-564.9 1320.54,-564.9 1320.54,-564.9 1452.47,-564.9 1452.47,-564.9 1458.47,-564.9 1464.47,-570.9 1464.47,-576.9 1464.47,-576.9 1464.47,-590.18 1464.47,-590.18 1464.47,-596.18 1458.47,-602.18 1452.47,-602.18"/>
<text xml:space="preserve" text-anchor="start" x="1339.13" y="-584.64" font-family="Helvetica,sans-Serif" font-weight="bold" font-size="11.00">TriggerDispatcher</text>
<text xml:space="preserve" text-anchor="start" x="1321.5" y="-575.44" font-family="Helvetica,sans-Serif" font-size="9.00">durable consumer &#39;fq&#45;dispatcher&#39;</text>
</g>
<!-- nats_triggers&#45;&gt;dispatcher -->
<g id="edge8" class="edge">
<title>nats_triggers&#45;&gt;dispatcher</title>
<path fill="none" stroke="#444444" d="M922.46,-1090.65C919.74,-1047.33 909.92,-960.47 874.5,-897.24 865.44,-881.07 851.83,-885.28 844.5,-868.24 825.89,-824.93 843.73,-809.31 843.5,-762.16 843.26,-709.6 806.67,-681.39 843.5,-643.88 852.21,-635.03 1278.49,-639.01 1290.5,-635.88 1312.71,-630.11 1335.45,-618.26 1353.21,-607.41"/>
<polygon fill="#444444" stroke="#444444" points="1354.44,-609.94 1359.73,-603.32 1351.46,-605.2 1354.44,-609.94"/>
<text xml:space="preserve" text-anchor="start" x="911.85" y="-910.54" font-family="Helvetica,sans-Serif" font-size="9.50" fill="#333333">② durable pull ·</text>
<text xml:space="preserve" text-anchor="start" x="885.47" y="-899.14" font-family="Helvetica,sans-Serif" font-size="9.50" fill="#333333">ack only after first WAL write</text>
</g>
<!-- coordination -->
<g id="node12" class="node">
<title>coordination</title>
<path fill="#ffffff" stroke="#555555" d="M1046.67,-606.68C1046.67,-606.68 880.34,-606.68 880.34,-606.68 874.34,-606.68 868.34,-600.68 868.34,-594.68 868.34,-594.68 868.34,-572.4 868.34,-572.4 868.34,-566.4 874.34,-560.4 880.34,-560.4 880.34,-560.4 1046.67,-560.4 1046.67,-560.4 1052.67,-560.4 1058.67,-566.4 1058.67,-572.4 1058.67,-572.4 1058.67,-594.68 1058.67,-594.68 1058.67,-600.68 1052.67,-606.68 1046.67,-606.68"/>
<text xml:space="preserve" text-anchor="start" x="902.09" y="-589.14" font-family="Helvetica,sans-Serif" font-weight="bold" font-size="11.00">CoordinationConsumer</text>
<text xml:space="preserve" text-anchor="start" x="895.3" y="-579.94" font-family="Helvetica,sans-Serif" font-size="9.00">ownership: InFlight → Completed |</text>
<text xml:space="preserve" text-anchor="start" x="881.3" y="-570.94" font-family="Helvetica,sans-Serif" font-size="9.00">Failed | Ambiguous · stale&#45;worker sweep</text>
</g>
<!-- nats_events&#45;&gt;coordination -->
<g id="edge21" class="edge">
<title>nats_events&#45;&gt;coordination</title>
<path fill="none" stroke="#444444" d="M466.83,-1095.06C481.5,-1052.71 517.8,-959.59 572.08,-897.24 586.84,-880.29 598.82,-885.26 613.5,-868.24 673.22,-799.03 642.82,-750.83 705.5,-684.28 745.81,-641.49 806.57,-616.82 859,-602.72"/>
<polygon fill="#444444" stroke="#444444" points="859.51,-605.48 866.54,-600.76 858.1,-600.06 859.51,-605.48"/>
<text xml:space="preserve" text-anchor="start" x="572.08" y="-904.84" font-family="Helvetica,sans-Serif" font-size="9.50" fill="#333333">⑦ lifecycle + archive events</text>
</g>
<!-- hostloop -->
<g id="node15" class="node">
<title>hostloop</title>
<path fill="#ffffff" stroke="#555555" d="M1248.63,-471.4C1248.63,-471.4 1006.38,-471.4 1006.38,-471.4 1000.38,-471.4 994.38,-465.4 994.38,-459.4 994.38,-459.4 994.38,-419.12 994.38,-419.12 994.38,-413.12 1000.38,-407.12 1006.38,-407.12 1006.38,-407.12 1248.63,-407.12 1248.63,-407.12 1254.63,-407.12 1260.63,-413.12 1260.63,-419.12 1260.63,-419.12 1260.63,-459.4 1260.63,-459.4 1260.63,-465.4 1254.63,-471.4 1248.63,-471.4"/>
<text xml:space="preserve" text-anchor="start" x="1102.15" y="-453.86" font-family="Helvetica,sans-Serif" font-weight="bold" font-size="11.00">Host loop</text>
<text xml:space="preserve" text-anchor="start" x="1074.73" y="-444.66" font-family="Helvetica,sans-Serif" font-size="9.00">drives pure Reducer::step:</text>
<text xml:space="preserve" text-anchor="start" x="1028.21" y="-435.66" font-family="Helvetica,sans-Serif" font-size="9.00">CallModel | CallTool(sParallel) | Complete | Failed</text>
<text xml:space="preserve" text-anchor="start" x="1052.33" y="-426.66" font-family="Helvetica,sans-Serif" font-size="9.00">budget enforcement · heartbeat ~10s</text>
<text xml:space="preserve" text-anchor="start" x="1007.34" y="-417.66" font-family="Helvetica,sans-Serif" font-size="9.00">outcome: Completed | BudgetExceeded | Suspended (drain)</text>
</g>
<!-- nats_events&#45;&gt;hostloop -->
<g id="edge18" class="edge">
<title>nats_events&#45;&gt;hostloop</title>
<path fill="none" stroke="#444444" d="M430.09,-1087.88C417.88,-1072.48 406.5,-1052.58 406.5,-1031.84 406.5,-1031.84 406.5,-1031.84 406.5,-907.64 406.5,-869.56 387.3,-854.55 407,-821.96 421.2,-798.48 437.7,-806.62 461.5,-792.96 638.15,-691.62 669.87,-644.51 851.5,-552.4 912.51,-521.47 984.14,-492.57 1039.14,-471.86"/>
<polygon fill="#444444" stroke="#444444" points="427.85,-1089.56 435.13,-1093.89 432.14,-1085.96 427.85,-1089.56"/>
<text xml:space="preserve" text-anchor="start" x="431.03" y="-847" font-family="Helvetica,sans-Serif" font-size="9.50" fill="#333333">⑥ publish fq.agent.&lt;id&gt;.* lifecycle ·</text>
<text xml:space="preserve" text-anchor="start" x="407" y="-835.6" font-family="Helvetica,sans-Serif" font-size="9.50" fill="#333333">fq.worker.&lt;id&gt;.heartbeat · .invocation.archived</text>
</g>
<!-- projection -->
<g id="node18" class="node">
<title>projection</title>
<path fill="#ffffff" stroke="#555555" d="M1234.51,-730.56C1234.51,-730.56 1080.5,-730.56 1080.5,-730.56 1074.5,-730.56 1068.5,-724.56 1068.5,-718.56 1068.5,-718.56 1068.5,-696.28 1068.5,-696.28 1068.5,-690.28 1074.5,-684.28 1080.5,-684.28 1080.5,-684.28 1234.51,-684.28 1234.51,-684.28 1240.51,-684.28 1246.51,-690.28 1246.51,-696.28 1246.51,-696.28 1246.51,-718.56 1246.51,-718.56 1246.51,-724.56 1240.51,-730.56 1234.51,-730.56"/>
<text xml:space="preserve" text-anchor="start" x="1103.41" y="-713.02" font-family="Helvetica,sans-Serif" font-weight="bold" font-size="11.00">ProjectionConsumer</text>
<text xml:space="preserve" text-anchor="start" x="1109.87" y="-703.82" font-family="Helvetica,sans-Serif" font-size="9.00">+ SummaryConsumer ·</text>
<text xml:space="preserve" text-anchor="start" x="1081.46" y="-694.82" font-family="Helvetica,sans-Serif" font-size="9.00">materialise events into the read model</text>
</g>
<!-- nats_events&#45;&gt;projection -->
<g id="edge19" class="edge">
<title>nats_events&#45;&gt;projection</title>
<path fill="none" stroke="#444444" d="M525.06,-1094.88C538.37,-1090.63 552.33,-1086.4 565.5,-1082.84 730.96,-1038.17 787.9,-1075.8 942.5,-1001.84 994.61,-976.92 1006.64,-964.52 1043.5,-920.04 1090.87,-862.9 1127.44,-783.02 1145.36,-739.57"/>
<polygon fill="#444444" stroke="#444444" points="1147.91,-740.74 1148.33,-732.28 1142.72,-738.63 1147.91,-740.74"/>
<text xml:space="preserve" text-anchor="start" x="1018.25" y="-956.64" font-family="Helvetica,sans-Serif" font-size="9.50" fill="#333333">⑦ fq.agent.&lt;id&gt;.&gt;</text>
</g>
<!-- nats_advisories -->
<g id="node10" class="node">
<title>nats_advisories</title>
<path fill="#ffffff" stroke="#555555" d="M781.37,-1141.62C781.37,-1141.62 595.64,-1141.62 595.64,-1141.62 589.64,-1141.62 583.64,-1135.62 583.64,-1129.62 583.64,-1129.62 583.64,-1107.34 583.64,-1107.34 583.64,-1101.34 589.64,-1095.34 595.64,-1095.34 595.64,-1095.34 781.37,-1095.34 781.37,-1095.34 787.37,-1095.34 793.37,-1101.34 793.37,-1107.34 793.37,-1107.34 793.37,-1129.62 793.37,-1129.62 793.37,-1135.62 787.37,-1141.62 781.37,-1141.62"/>
<text xml:space="preserve" text-anchor="start" x="654.27" y="-1124.08" font-family="Helvetica,sans-Serif" font-weight="bold" font-size="11.00">fq&#45;advisories</text>
<text xml:space="preserve" text-anchor="start" x="652.99" y="-1114.88" font-family="Helvetica,sans-Serif" font-size="9.00">JetStream stream</text>
<text xml:space="preserve" text-anchor="start" x="596.6" y="-1105.88" font-family="Helvetica,sans-Serif" font-size="9.00">$JS.EVENT…MAX_DELIVERIES.fq&#45;triggers.&gt;</text>
</g>
<!-- deadletter -->
<g id="node13" class="node">
<title>deadletter</title>
<path fill="#ffffff" stroke="#555555" d="M1260.5,-602.18C1260.5,-602.18 1106.51,-602.18 1106.51,-602.18 1100.51,-602.18 1094.51,-596.18 1094.51,-590.18 1094.51,-590.18 1094.51,-576.9 1094.51,-576.9 1094.51,-570.9 1100.51,-564.9 1106.51,-564.9 1106.51,-564.9 1260.5,-564.9 1260.5,-564.9 1266.5,-564.9 1272.5,-570.9 1272.5,-576.9 1272.5,-576.9 1272.5,-590.18 1272.5,-590.18 1272.5,-596.18 1266.5,-602.18 1260.5,-602.18"/>
<text xml:space="preserve" text-anchor="start" x="1112.13" y="-584.64" font-family="Helvetica,sans-Serif" font-weight="bold" font-size="11.00">AdvisoryWatch + sweepers</text>
<text xml:space="preserve" text-anchor="start" x="1107.47" y="-575.44" font-family="Helvetica,sans-Serif" font-size="9.00">dead&#45;letters · archive retry · retention</text>
</g>
<!-- nats_advisories&#45;&gt;deadletter -->
<g id="edge23" class="edge">
<title>nats_advisories&#45;&gt;deadletter</title>
<path fill="none" stroke="#444444" d="M707.85,-1095.15C720.05,-1078.77 733.5,-1055.36 733.5,-1031.84 733.5,-1031.84 733.5,-1031.84 733.5,-706.42 733.5,-656.98 778.49,-659.18 825.5,-643.88 878.57,-626.62 1022.29,-649.13 1076.5,-635.88 1100.85,-629.94 1126.21,-618.05 1146.13,-607.22"/>
<polygon fill="#444444" stroke="#444444" points="1147.37,-609.73 1153,-603.39 1144.64,-604.84 1147.37,-609.73"/>
<text xml:space="preserve" text-anchor="middle" x="803.73" y="-905.79" font-family="Helvetica,sans-Serif" font-size="9.50" fill="#333333">MAX_DELIVERIES → dead&#45;letter</text>
</g>
<!-- dispatcher&#45;&gt;hostloop -->
<g id="edge9" class="edge">
<title>dispatcher&#45;&gt;hostloop</title>
<path fill="none" stroke="#444444" d="M1334.11,-564.42C1320.07,-560.03 1304.81,-555.66 1290.5,-552.4 1258.71,-545.16 1168.88,-553.89 1145.27,-531.4 1131.75,-518.53 1126.82,-498.65 1125.49,-480.74"/>
<polygon fill="#444444" stroke="#444444" points="1128.3,-480.98 1125.15,-473.11 1122.71,-481.23 1128.3,-480.98"/>
<text xml:space="preserve" text-anchor="start" x="1145.27" y="-516.2" font-family="Helvetica,sans-Serif" font-size="9.50" fill="#333333">③ dyn Worker::run(invocation)</text>
</g>
<!-- coordination&#45;&gt;hostloop -->
<g id="edge24" class="edge">
<title>coordination&#45;&gt;hostloop</title>
<path fill="none" stroke="#444444" stroke-dasharray="5,2" d="M1041.86,-559.93C1053.41,-557.1 1065.22,-554.47 1076.5,-552.4 1121.55,-544.14 1250.82,-565.4 1281.5,-531.4 1301.87,-508.85 1284.19,-490.23 1254.57,-475.82"/>
<polygon fill="#444444" stroke="#444444" points="1255.74,-473.28 1247.3,-472.5 1253.41,-478.37 1255.74,-473.28"/>
<text xml:space="preserve" text-anchor="start" x="1300.53" y="-521.9" font-family="Helvetica,sans-Serif" font-size="9.50" fill="#333333">⑧ archive_acked →</text>
<text xml:space="preserve" text-anchor="start" x="1290.24" y="-510.5" font-family="Helvetica,sans-Serif" font-size="9.50" fill="#333333">worker deletes WAL row</text>
</g>
<!-- cpstore -->
<g id="node21" class="node">
<title>cpstore</title>
<path fill="#ffffff" stroke="#555555" d="M1648.76,-195.54C1648.76,-195.54 1454.25,-195.54 1454.25,-195.54 1448.25,-195.54 1442.25,-189.54 1442.25,-183.54 1442.25,-183.54 1442.25,-161.26 1442.25,-161.26 1442.25,-155.26 1448.25,-149.26 1454.25,-149.26 1454.25,-149.26 1648.76,-149.26 1648.76,-149.26 1654.76,-149.26 1660.76,-155.26 1660.76,-161.26 1660.76,-161.26 1660.76,-183.54 1660.76,-183.54 1660.76,-189.54 1654.76,-195.54 1648.76,-195.54"/>
<text xml:space="preserve" text-anchor="start" x="1503.22" y="-178" font-family="Helvetica,sans-Serif" font-weight="bold" font-size="11.00">ControlPlaneStore</text>
<text xml:space="preserve" text-anchor="start" x="1467.73" y="-168.8" font-family="Helvetica,sans-Serif" font-weight="bold" font-size="9.00">source of truth</text>
<text xml:space="preserve" text-anchor="start" x="1531.23" y="-168.8" font-family="Helvetica,sans-Serif" font-size="9.00"> — invocation ownership ·</text>
<text xml:space="preserve" text-anchor="start" x="1455.21" y="-159.8" font-family="Helvetica,sans-Serif" font-size="9.00">schedule · invocation_archive · worker liveness</text>
</g>
<!-- coordination&#45;&gt;cpstore -->
<g id="edge22" class="edge">
<title>coordination&#45;&gt;cpstore</title>
<path fill="none" stroke="#444444" d="M1040.26,-559.91C1052.31,-556.99 1064.68,-554.34 1076.5,-552.4 1112.32,-546.53 1372.97,-552.51 1402.5,-531.4 1512.59,-452.75 1541.66,-276.95 1549.07,-205.01"/>
<polygon fill="#444444" stroke="#444444" points="1551.82,-205.71 1549.8,-197.47 1546.24,-205.17 1551.82,-205.71"/>
<text xml:space="preserve" text-anchor="middle" x="1555.19" y="-369.57" font-family="Helvetica,sans-Serif" font-size="9.50" fill="#333333">ownership · archive</text>
</g>
<!-- registry&#45;&gt;dispatcher -->
<g id="edge10" class="edge">
<title>registry&#45;&gt;dispatcher</title>
<path fill="none" stroke="#444444" stroke-dasharray="5,2" d="M1032.64,-688.04C1038.68,-686.76 1044.69,-685.5 1050.5,-684.28 1157.03,-662.1 1188.1,-672.69 1290.5,-635.88 1311.17,-628.46 1332.86,-617.19 1350.38,-607.11"/>
<polygon fill="#444444" stroke="#444444" points="1351.32,-609.8 1356.81,-603.34 1348.49,-604.97 1351.32,-609.8"/>
<text xml:space="preserve" text-anchor="middle" x="1290.3" y="-646.73" font-family="Helvetica,sans-Serif" font-size="9.50" fill="#333333">resolve agent</text>
</g>
<!-- llmclient -->
<g id="node16" class="node">
<title>llmclient</title>
<path fill="#ffffff" stroke="#555555" d="M1249,-333.22C1249,-333.22 1084.01,-333.22 1084.01,-333.22 1078.01,-333.22 1072.01,-327.22 1072.01,-321.22 1072.01,-321.22 1072.01,-307.94 1072.01,-307.94 1072.01,-301.94 1078.01,-295.94 1084.01,-295.94 1084.01,-295.94 1249,-295.94 1249,-295.94 1255,-295.94 1261,-301.94 1261,-307.94 1261,-307.94 1261,-321.22 1261,-321.22 1261,-327.22 1255,-333.22 1249,-333.22"/>
<text xml:space="preserve" text-anchor="start" x="1139.31" y="-315.68" font-family="Helvetica,sans-Serif" font-weight="bold" font-size="11.00">LLM client</text>
<text xml:space="preserve" text-anchor="start" x="1084.97" y="-306.48" font-family="Helvetica,sans-Serif" font-size="9.00">genai · RetryingLlmClient · PricingTable</text>
</g>
<!-- hostloop&#45;&gt;llmclient -->
<g id="edge11" class="edge">
<title>hostloop&#45;&gt;llmclient</title>
<path fill="none" stroke="#444444" d="M1137.55,-406.67C1143.88,-386.75 1151.97,-361.31 1157.99,-342.38"/>
<polygon fill="#444444" stroke="#444444" points="1160.63,-343.31 1160.38,-334.84 1155.29,-341.62 1160.63,-343.31"/>
<text xml:space="preserve" text-anchor="start" x="1149.34" y="-368.62" font-family="Helvetica,sans-Serif" font-size="9.50" fill="#333333">④ CallModel</text>
</g>
<!-- tools -->
<g id="node17" class="node">
<title>tools</title>
<path fill="#ffffff" stroke="#555555" d="M1024.12,-337.72C1024.12,-337.72 880.89,-337.72 880.89,-337.72 874.89,-337.72 868.89,-331.72 868.89,-325.72 868.89,-325.72 868.89,-303.44 868.89,-303.44 868.89,-297.44 874.89,-291.44 880.89,-291.44 880.89,-291.44 1024.12,-291.44 1024.12,-291.44 1030.12,-291.44 1036.12,-297.44 1036.12,-303.44 1036.12,-303.44 1036.12,-325.72 1036.12,-325.72 1036.12,-331.72 1030.12,-337.72 1024.12,-337.72"/>
<text xml:space="preserve" text-anchor="start" x="918.89" y="-320.18" font-family="Helvetica,sans-Serif" font-weight="bold" font-size="11.00">ToolRegistry</text>
<text xml:space="preserve" text-anchor="start" x="898.85" y="-310.98" font-family="Helvetica,sans-Serif" font-size="9.00">fq&#45;tools built&#45;ins + sandbox</text>
<text xml:space="preserve" text-anchor="start" x="881.85" y="-301.98" font-family="Helvetica,sans-Serif" font-size="9.00">+ MCP tools via McpClientManager</text>
</g>
<!-- hostloop&#45;&gt;tools -->
<g id="edge12" class="edge">
<title>hostloop&#45;&gt;tools</title>
<path fill="none" stroke="#444444" d="M1082.44,-406.67C1054.6,-387.16 1019.21,-362.34 992.39,-343.54"/>
<polygon fill="#444444" stroke="#444444" points="994.11,-341.33 985.95,-339.03 990.9,-345.92 994.11,-341.33"/>
<text xml:space="preserve" text-anchor="start" x="1040" y="-368.62" font-family="Helvetica,sans-Serif" font-size="9.50" fill="#333333">④ CallTool(s)</text>
</g>
<!-- workerstore -->
<g id="node20" class="node">
<title>workerstore</title>
<path fill="#ffffff" stroke="#555555" d="M1393.89,-200.04C1393.89,-200.04 1255.12,-200.04 1255.12,-200.04 1249.12,-200.04 1243.12,-194.04 1243.12,-188.04 1243.12,-188.04 1243.12,-156.76 1243.12,-156.76 1243.12,-150.76 1249.12,-144.76 1255.12,-144.76 1255.12,-144.76 1393.89,-144.76 1393.89,-144.76 1399.89,-144.76 1405.89,-150.76 1405.89,-156.76 1405.89,-156.76 1405.89,-188.04 1405.89,-188.04 1405.89,-194.04 1399.89,-200.04 1393.89,-200.04"/>
<text xml:space="preserve" text-anchor="start" x="1291.5" y="-182.5" font-family="Helvetica,sans-Serif" font-weight="bold" font-size="11.00">WorkerStore</text>
<text xml:space="preserve" text-anchor="start" x="1258.99" y="-173.3" font-family="Helvetica,sans-Serif" font-weight="bold" font-size="9.00">source of truth</text>
<text xml:space="preserve" text-anchor="start" x="1322.49" y="-173.3" font-family="Helvetica,sans-Serif" font-size="9.00"> — reducer WAL:</text>
<text xml:space="preserve" text-anchor="start" x="1256.08" y="-164.3" font-family="Helvetica,sans-Serif" font-size="9.00">dispatch rows + opaque state blob</text>
<text xml:space="preserve" text-anchor="start" x="1292" y="-155.3" font-family="Helvetica,sans-Serif" font-size="9.00">(crash recovery)</text>
</g>
<!-- hostloop&#45;&gt;workerstore -->
<g id="edge17" class="edge">
<title>hostloop&#45;&gt;workerstore</title>
<path fill="none" stroke="#444444" d="M1195.48,-406.81C1224.87,-390.09 1257.31,-366.9 1278.5,-337.72 1306.31,-299.44 1317.33,-244.96 1321.68,-209.4"/>
<polygon fill="#444444" stroke="#444444" points="1324.42,-210.11 1322.52,-201.85 1318.85,-209.49 1324.42,-210.11"/>
<text xml:space="preserve" text-anchor="start" x="1322.39" y="-316.48" font-family="Helvetica,sans-Serif" font-size="9.50" fill="#333333">⑤ WAL checkpoint every step ·</text>
<text xml:space="preserve" text-anchor="start" x="1307.34" y="-305.08" font-family="Helvetica,sans-Serif" font-size="9.50" fill="#333333">resume / replay / Ambiguous on restart</text>
</g>
<!-- llmapis -->
<g id="node23" class="node">
<title>llmapis</title>
<ellipse fill="#f2f2f2" stroke="#555555" cx="774.5" cy="-172.4" rx="120.54" ry="32.72"/>
<text xml:space="preserve" text-anchor="start" x="725.92" y="-178" font-family="Helvetica,sans-Serif" font-weight="bold" font-size="11.00">LLM provider APIs</text>
<text xml:space="preserve" text-anchor="start" x="702.98" y="-168.8" font-family="Helvetica,sans-Serif" font-size="9.00">Anthropic / OpenAI / … over HTTPS</text>
<text xml:space="preserve" text-anchor="start" x="702.23" y="-159.8" font-family="Helvetica,sans-Serif" font-size="9.00">keys from env vars named in fq.toml</text>
</g>
<!-- llmclient&#45;&gt;llmapis -->
<g id="edge13" class="edge">
<title>llmclient&#45;&gt;llmapis</title>
<path fill="none" stroke="#444444" d="M1114.46,-295.54C1095.61,-289.09 1074.13,-281.83 1054.5,-275.44 992.11,-255.13 975.17,-254.08 913.5,-231.64 890.93,-223.43 866.67,-213.62 844.84,-204.41"/>
<polygon fill="#444444" stroke="#444444" points="846.13,-201.92 837.67,-201.37 843.94,-207.07 846.13,-201.92"/>
<text xml:space="preserve" text-anchor="middle" x="1026.37" y="-248.19" font-family="Helvetica,sans-Serif" font-size="9.50" fill="#333333">HTTPS</text>
</g>
<!-- litellm -->
<g id="node25" class="node">
<title>litellm</title>
<ellipse fill="#f2f2f2" stroke="#555555" cx="1068.5" cy="-172.4" rx="137.2" ry="32.72"/>
<text xml:space="preserve" text-anchor="start" x="1011.06" y="-178" font-family="Helvetica,sans-Serif" font-weight="bold" font-size="11.00">LiteLLM pricing JSON</text>
<text xml:space="preserve" text-anchor="start" x="984.45" y="-168.8" font-family="Helvetica,sans-Serif" font-size="9.00">fetched at boot, cached · daemon refuses</text>
<text xml:space="preserve" text-anchor="start" x="1006.23" y="-159.8" font-family="Helvetica,sans-Serif" font-size="9.00">to start if any model is unpriced</text>
</g>
<!-- llmclient&#45;&gt;litellm -->
<g id="edge16" class="edge">
<title>llmclient&#45;&gt;litellm</title>
<path fill="none" stroke="#444444" stroke-dasharray="5,2" d="M1103.56,-295.53C1087.93,-287.92 1073.04,-277.26 1063.87,-262.44 1055.15,-248.36 1054.53,-230.5 1056.76,-214.47"/>
<polygon fill="#444444" stroke="#444444" points="1059.49,-215.14 1058.11,-206.78 1053.97,-214.18 1059.49,-215.14"/>
<text xml:space="preserve" text-anchor="middle" x="1106.19" y="-248.19" font-family="Helvetica,sans-Serif" font-size="9.50" fill="#333333">pricing fetch @ boot</text>
</g>
<!-- mcpsrv -->
<g id="node24" class="node">
<title>mcpsrv</title>
<ellipse fill="#f2f2f2" stroke="#555555" cx="481.5" cy="-172.4" rx="136.46" ry="32.72"/>
<text xml:space="preserve" text-anchor="start" x="448.18" y="-178" font-family="Helvetica,sans-Serif" font-weight="bold" font-size="11.00">MCP servers</text>
<text xml:space="preserve" text-anchor="start" x="397.97" y="-168.8" font-family="Helvetica,sans-Serif" font-size="9.00">stdio child processes or streamable HTTP</text>
<text xml:space="preserve" text-anchor="start" x="401.46" y="-159.8" font-family="Helvetica,sans-Serif" font-size="9.00">grant&#45;bearing servers run per&#45;invocation</text>
</g>
<!-- tools&#45;&gt;mcpsrv -->
<g id="edge14" class="edge">
<title>tools&#45;&gt;mcpsrv</title>
<path fill="none" stroke="#444444" d="M868.7,-294.55C804.39,-279.31 713.66,-256.44 635.5,-231.64 610.27,-223.64 583.13,-213.8 558.78,-204.51"/>
<polygon fill="#444444" stroke="#444444" points="559.82,-201.91 551.35,-201.65 557.82,-207.14 559.82,-201.91"/>
<text xml:space="preserve" text-anchor="middle" x="749.76" y="-248.19" font-family="Helvetica,sans-Serif" font-size="9.50" fill="#333333">rmcp</text>
</g>
<!-- projection&#45;&gt;projstore -->
<g id="edge20" class="edge">
<title>projection&#45;&gt;projstore</title>
<path fill="none" stroke="#444444" d="M1246.88,-687.66C1326.83,-670.75 1437.9,-646.91 1481.5,-635.88 1561.33,-615.71 1659.5,-666.88 1659.5,-584.54 1659.5,-584.54 1659.5,-584.54 1659.5,-313.58 1659.5,-267.19 1697.26,-227.04 1728.53,-201.75"/>
<polygon fill="#444444" stroke="#444444" points="1730.15,-204.03 1734.71,-196.89 1726.69,-199.63 1730.15,-204.03"/>
<text xml:space="preserve" text-anchor="middle" x="1682.47" y="-436.41" font-family="Helvetica,sans-Serif" font-size="9.50" fill="#333333">materialise</text>
</g>
<!-- readsvc&#45;&gt;projstore -->
<g id="edge27" class="edge">
<title>readsvc&#45;&gt;projstore</title>
<path fill="none" stroke="#444444" d="M1472.2,-703.04C1535.45,-697.89 1619.24,-685.35 1687.5,-655.28 1734.07,-634.78 1777.5,-635.42 1777.5,-584.54 1777.5,-584.54 1777.5,-584.54 1777.5,-313.58 1777.5,-276.3 1774.65,-233.52 1772.35,-205.13"/>
<polygon fill="#444444" stroke="#444444" points="1775.15,-204.97 1771.69,-197.23 1769.56,-205.43 1775.15,-204.97"/>
<text xml:space="preserve" text-anchor="middle" x="1806.54" y="-436.41" font-family="Helvetica,sans-Serif" font-size="9.50" fill="#333333">reads (Views)</text>
</g>
<!-- cas -->
<g id="node26" class="node">
<title>cas</title>
<path fill="#ffffff" stroke="#999999" d="M1887.77,-71.28C1887.77,-71.28 1651.23,-71.28 1651.23,-71.28 1645.23,-71.28 1639.23,-65.28 1639.23,-59.28 1639.23,-59.28 1639.23,-28 1639.23,-28 1639.23,-22 1645.23,-16 1651.23,-16 1651.23,-16 1887.77,-16 1887.77,-16 1893.77,-16 1899.77,-22 1899.77,-28 1899.77,-28 1899.77,-59.28 1899.77,-59.28 1899.77,-65.28 1893.77,-71.28 1887.77,-71.28"/>
<text xml:space="preserve" text-anchor="start" x="1717.99" y="-53.74" font-family="Helvetica,sans-Serif" font-weight="bold" font-size="11.00" fill="#666666">fq&#45;cas serve</text>
<text xml:space="preserve" text-anchor="start" x="1782.2" y="-53.74" font-family="Helvetica,sans-Serif" font-size="11.00" fill="#666666">  + CLI</text>
<text xml:space="preserve" text-anchor="start" x="1652.19" y="-44.54" font-family="Helvetica,sans-Serif" font-size="9.00" fill="#666666">tarpc 127.0.0.1:9000 · BLAKE3 CIDs · FastCDC chunking</text>
<text xml:space="preserve" text-anchor="start" x="1679.96" y="-35.54" font-family="Helvetica,sans-Serif" font-size="9.00" fill="#666666">biscuit&#45;auth capability tokens · own SQLite ·</text>
<text xml:space="preserve" text-anchor="start" x="1674.71" y="-26.54" font-family="Helvetica,sans-Serif" font-size="9.00" fill="#666666">publishes fq.store.grant.* to NATS (bus feature)</text>
</g>
<!-- projstore&#45;&gt;cas -->
<!-- mcpsrv&#45;&gt;llmclient -->
<g id="edge15" class="edge">
<title>mcpsrv&#45;&gt;llmclient</title>
<path fill="none" stroke="#444444" stroke-dasharray="5,2" d="M542.65,-202.11C570.35,-213.64 603.92,-225.62 635.5,-231.64 649.64,-234.34 1142.55,-230.31 1153.5,-239.64 1166.56,-250.78 1169.63,-270.02 1169.52,-286.08"/>
<polygon fill="#444444" stroke="#444444" points="1166.73,-285.95 1169.18,-294.06 1172.32,-286.19 1166.73,-285.95"/>
<text xml:space="preserve" text-anchor="middle" x="1223.82" y="-253.89" font-family="Helvetica,sans-Serif" font-size="9.50" fill="#333333">sampling / elicitation / roots</text>
<text xml:space="preserve" text-anchor="middle" x="1223.82" y="-242.49" font-family="Helvetica,sans-Serif" font-size="9.50" fill="#333333">bridged back to host</text>
</g>
</g>
</svg>
